<?xml version="1.0" encoding="utf-8"?>
<!-- Generator: Adobe Illustrator 19.1.0, SVG Export Plug-In . SVG Version: 6.00 Build 0)  -->
<svg version="1.1" id="Layer_1" xmlns="http://www.w3.org/2000/svg" xmlns:xlink="http://www.w3.org/1999/xlink" x="0px" y="0px"
	 viewBox="-202 234.7 93.1 32.3" enable-background="new -202 234.7 93.1 32.3" xml:space="preserve">
<g>
	<path d="M-165,255.2c0,0,1.3,1.7,3.6,1.7c1.3,0,2.4-0.6,2.4-1.8c0-2.5-6.5-2.1-6.5-5.8c0-2.1,1.8-3.1,4.1-3.1
		c1.2,0,3.5,0.5,3.5,2.1v1h-1.5v-0.6c0-0.9-1.2-1.2-2-1.2c-1.6,0-2.6,0.6-2.6,1.7c0,2.6,6.5,2,6.5,5.8c0,1.9-1.7,3.2-4,3.2
		c-3,0-4.4-2-4.4-2L-165,255.2z"/>
	<path d="M-154.4,248.4c0-0.3-0.2-0.5-0.5-0.5h-1v-1.4h1.6c1,0,1.4,0.4,1.4,1.2c0,0.5,0,0.8,0,0.8l0,0c0,0,0.9-2.3,4-2.3
		c3.1,0,5,2.5,5,6.1c0,3.7-2.2,6-5.2,6c-2.8,0-3.8-2.2-3.8-2.2l0,0c0,0,0,0.4,0,1v5.5h-1.6v-14.2H-154.4z M-149.2,256.9
		c2,0,3.7-1.7,3.7-4.7c0-2.8-1.5-4.6-3.7-4.6c-1.9,0-3.7,1.4-3.7,4.7C-152.9,254.6-151.7,256.9-149.2,256.9z"/>
	<path d="M-135.1,250.9h0.6v-0.1c0-2.4-0.9-3.3-3-3.3c-0.6,0-2.3,0.2-2.3,1v0.7h-1.5v-1.1c0-1.6,2.8-2,3.8-2c3.7,0,4.5,2,4.5,4.4
		v5.5c0,0.3,0.2,0.5,0.5,0.5h1v1.4h-1.5c-1,0-1.4-0.4-1.4-1.4c0-0.5,0-0.9,0-0.9l0,0c0,0-0.9,2.5-3.8,2.5c-1.9,0-3.9-1.1-3.9-3.4
		C-142.1,251.1-137.1,250.9-135.1,250.9z M-138,257c2.2,0,3.5-2.3,3.5-4.3v-0.5h-0.7c-1.8,0-5.4,0-5.4,2.6
		C-140.5,255.9-139.7,257-138,257z"/>
	<path d="M-128.9,248.4c0-0.3-0.2-0.5-0.5-0.5h-1v-1.4h1.6c1,0,1.4,0.4,1.4,1.3v0.8c0,0.5,0,0.9,0,0.9l0,0c0.6-1.7,1.8-3.1,3.7-3.1
		c0.3,0,0.6,0.1,0.6,0.1v1.5c0,0-0.3,0-0.6,0c-1.6,0-2.8,1.3-3.4,3c-0.2,0.7-0.3,1.5-0.3,2.3v4.9h-1.6v-9.8H-128.9z"/>
	<path d="M-120.9,243.8c0-0.3-0.2-0.5-0.5-0.5h-1v-1.4h1.6c1,0,1.4,0.3,1.4,1.3v7.7h1.2c0.4,0,1-0.1,1.3-0.6l3-3.9h1.9l-3.3,4.3
		c-0.6,0.7-0.9,0.8-0.9,0.8l0,0c0,0,0.3,0.2,0.7,0.9l2.1,3.7c0.2,0.4,0.4,0.5,1.1,0.5h0.6v1.4h-1.1c-1.1,0-1.5-0.2-2-1.1l-2.3-4.1
		c-0.3-0.5-0.8-0.5-1.2-0.5h-1.1v5.8h-1.6v-14.3H-120.9z"/>
</g>
<g>
	<g>
		<g>
			<path fill="#F1C33E" d="M-186.1,243.5c0.7,0,0.9,0.1,0.9,0.1c0.5,0.1,1-0.2,1-0.8v-4.6c0-0.5-0.4-1.1-1-1.1c0,0-0.3,0-0.9,0
				c-0.6,0-0.9,0-0.9,0c-0.5,0.1-1,0.6-1,1.1v4.5c0,0.6,0.4,0.9,1,0.8C-187,243.5-186.7,243.5-186.1,243.5z"/>
		</g>
	</g>
	<g>
		<g>
			<path fill="#F1C33E" d="M-186.1,258.5c-0.7,0-0.9-0.1-0.9-0.1c-0.5-0.1-1,0.2-1,0.8v4.5c0,0.5,0.4,1.1,1,1.1c0,0,0.3,0,0.9,0
				c0.6,0,0.9,0,0.9,0c0.5-0.1,1-0.6,1-1.1v-4.5c0-0.6-0.4-0.9-1-0.8C-185.1,258.5-185.4,258.5-186.1,258.5z"/>
		</g>
	</g>
	<g>
		<g>
			<path fill="#F1C33E" d="M-191.8,246.2c0.4-0.4,0.3-1-0.2-1.3l-4-2.2c-0.4-0.3-1.1-0.2-1.4,0.3l-1,1.6c-0.2,0.4,0,1.1,0.4,1.3
				l3.9,2.2c0.5,0.3,1.1,0.1,1.3-0.4L-191.8,246.2z"/>
		</g>
	</g>
	<g>
		<g>
			<path fill="#F1C33E" d="M-177.8,253.1c-0.5-0.3-1-0.1-1.2,0.4l-0.8,1.7c-0.3,0.5-0.2,1,0.3,1.3l3.9,2.2c0.5,0.3,1.1,0.1,1.4-0.3
				l0.9-1.6c0.2-0.5,0-1.1-0.4-1.4L-177.8,253.1z"/>
		</g>
	</g>
	<g>
		<g>
			<path fill="#F1C33E" d="M-179.3,247.8c0.2,0.5,0.8,0.7,1.3,0.4l3.9-2.2c0.5-0.3,0.7-0.9,0.4-1.4l-1-1.6c-0.3-0.4-1-0.6-1.4-0.3
				l-4,2.3c-0.5,0.3-0.6,0.8-0.2,1.3L-179.3,247.8z"/>
		</g>
	</g>
	<g>
		<g>
			<path fill="#F1C33E" d="M-193.1,253.6c-0.2-0.5-0.7-0.7-1.2-0.4l-3.9,2.3c-0.5,0.3-0.7,0.9-0.4,1.4l0.9,1.6
				c0.3,0.5,0.9,0.6,1.4,0.3l3.9-2.2c0.5-0.3,0.6-0.9,0.3-1.3L-193.1,253.6z"/>
		</g>
	</g>
</g>
<g>
	<path fill="#BCBEBB" d="M-164.4,238.5h2.2c0.4,0,0.8,0.1,1.1,0.4c0.3,0.3,0.4,0.6,0.4,1.1c0,0.4-0.1,0.7-0.4,1
		c-0.2,0.3-0.6,0.4-1.1,0.4h-1.6v2.1h-0.7V238.5z M-161.8,239.2c-0.1-0.1-0.4-0.1-0.6-0.1h-1.3v1.7h1.3c0.3,0,0.5-0.1,0.7-0.2
		s0.3-0.4,0.3-0.7C-161.4,239.5-161.5,239.3-161.8,239.2z"/>
	<path fill="#BCBEBB" d="M-159.8,238.5h2.3c0.4,0,0.7,0.1,0.9,0.2c0.5,0.2,0.7,0.6,0.7,1.2c0,0.3-0.1,0.5-0.2,0.7
		c-0.1,0.2-0.3,0.3-0.5,0.5c0.2,0.1,0.3,0.2,0.4,0.3c0.1,0.1,0.2,0.3,0.2,0.6l0,0.7c0,0.2,0,0.3,0,0.4c0,0.2,0.1,0.3,0.2,0.3v0.1
		h-0.8c0,0,0-0.1-0.1-0.2s0-0.2,0-0.4l0-0.8c0-0.3-0.1-0.5-0.4-0.7c-0.1-0.1-0.3-0.1-0.6-0.1h-1.5v2.2h-0.7V238.5z M-157.5,240.8
		c0.3,0,0.6-0.1,0.7-0.2s0.3-0.4,0.3-0.7c0-0.4-0.1-0.6-0.4-0.7c-0.1-0.1-0.3-0.1-0.5-0.1h-1.6v1.7H-157.5z"/>
	<path fill="#BCBEBB" d="M-150.6,239.2c0.3,0.4,0.5,1,0.5,1.7c0,0.7-0.2,1.4-0.6,1.9c-0.4,0.6-1.1,0.9-1.9,0.9
		c-0.8,0-1.4-0.3-1.8-0.8c-0.4-0.5-0.6-1.1-0.6-1.9c0-0.7,0.2-1.3,0.5-1.7c0.4-0.6,1.1-0.9,1.9-0.9
		C-151.7,238.3-151.1,238.6-150.6,239.2z M-151.2,242.4c0.3-0.4,0.4-0.9,0.4-1.5c0-0.6-0.2-1.1-0.5-1.4s-0.7-0.5-1.3-0.5
		c-0.5,0-0.9,0.2-1.3,0.5c-0.3,0.4-0.5,0.9-0.5,1.6c0,0.6,0.1,1,0.4,1.4c0.3,0.4,0.7,0.6,1.4,0.6
		C-151.9,243-151.5,242.8-151.2,242.4z"/>
	<path fill="#BCBEBB" d="M-146.9,242c0,0.4-0.1,0.8-0.2,1c-0.2,0.4-0.7,0.6-1.3,0.6c-0.4,0-0.7-0.1-1-0.3c-0.3-0.2-0.4-0.6-0.4-1.1
		v-0.4h0.6v0.4c0,0.3,0.1,0.5,0.2,0.6c0.1,0.1,0.3,0.2,0.6,0.2c0.4,0,0.6-0.1,0.7-0.4c0.1-0.2,0.1-0.4,0.1-0.9v-3.3h0.7V242z"/>
	<path fill="#BCBEBB" d="M-145.8,238.5h3.6v0.6h-3v1.5h2.8v0.6h-2.8v1.7h3v0.6h-3.7V238.5z"/>
	<path fill="#BCBEBB" d="M-137.6,238.8c0.3,0.3,0.5,0.7,0.6,1.1h-0.7c-0.1-0.3-0.2-0.6-0.4-0.8s-0.5-0.3-0.9-0.3
		c-0.5,0-0.9,0.2-1.2,0.5c-0.3,0.3-0.4,0.9-0.4,1.6c0,0.6,0.1,1.1,0.4,1.4c0.3,0.4,0.7,0.5,1.2,0.5c0.5,0,0.9-0.2,1.1-0.6
		c0.1-0.2,0.2-0.5,0.3-0.8h0.7c-0.1,0.5-0.3,1-0.6,1.3c-0.4,0.4-0.9,0.6-1.6,0.6c-0.6,0-1.1-0.2-1.5-0.5c-0.5-0.5-0.8-1.2-0.8-2.2
		c0-0.7,0.2-1.3,0.6-1.8c0.4-0.5,1-0.8,1.7-0.8C-138.5,238.3-138,238.5-137.6,238.8z"/>
	<path fill="#BCBEBB" d="M-132.5,238.5v0.6h-1.7v4.4h-0.7v-4.4h-1.7v-0.6H-132.5z"/>
</g>
</svg>
