<?xml version="1.0" encoding="utf-8"?>
<!-- Generator: Adobe Illustrator 19.1.0, SVG Export Plug-In . SVG Version: 6.00 Build 0)  -->
<svg version="1.1" id="Layer_1" xmlns="http://www.w3.org/2000/svg" xmlns:xlink="http://www.w3.org/1999/xlink" x="0px" y="0px"
	 viewBox="0 0 93.1 32.3" enable-background="new 0 0 93.1 32.3" xml:space="preserve">
<text transform="matrix(1 0 0 1 35.4478 23.3503)" font-family="'Museo-300'" font-size="22.9833px">spark</text>
<g>
	<g>
		<g>
			<path fill="#F1C33E" d="M15.9,8.8c0.7,0,0.9,0.1,0.9,0.1c0.5,0.1,1-0.2,1-0.8V3.5c0-0.5-0.4-1.1-1-1.1c0,0-0.3,0-0.9,0
				s-0.9,0-0.9,0c-0.5,0.1-1,0.6-1,1.1V8c0,0.6,0.4,0.9,1,0.8C15,8.8,15.3,8.8,15.9,8.8z"/>
		</g>
		<g>
			<path fill="#F1C33E" d="M15.9,23.8c-0.7,0-0.9-0.1-0.9-0.1c-0.5-0.1-1,0.2-1,0.8v4.5c0,0.5,0.4,1.1,1,1.1c0,0,0.3,0,0.9,0
				s0.9,0,0.9,0c0.5-0.1,1-0.6,1-1.1v-4.5c0-0.6-0.4-0.9-1-0.8C16.9,23.8,16.6,23.8,15.9,23.8z"/>
		</g>
		<g>
			<path fill="#F1C33E" d="M10.2,11.5c0.4-0.4,0.3-1-0.2-1.3L6,8C5.6,7.7,4.9,7.8,4.6,8.3l-1,1.6C3.4,10.3,3.6,11,4,11.2l3.9,2.2
				c0.5,0.3,1.1,0.1,1.3-0.4L10.2,11.5z"/>
		</g>
		<g>
			<path fill="#F1C33E" d="M24.2,18.4c-0.5-0.3-1-0.1-1.2,0.4l-0.8,1.7c-0.3,0.5-0.2,1,0.3,1.3l3.9,2.2c0.5,0.3,1.1,0.1,1.4-0.3
				l0.9-1.6c0.2-0.5,0-1.1-0.4-1.4L24.2,18.4z"/>
		</g>
		<g>
			<path fill="#F1C33E" d="M22.7,13.1c0.2,0.5,0.8,0.7,1.3,0.4l3.9-2.2c0.5-0.3,0.7-0.9,0.4-1.4l-1-1.6c-0.3-0.4-1-0.6-1.4-0.3
				l-4,2.3c-0.5,0.3-0.6,0.8-0.2,1.3L22.7,13.1z"/>
		</g>
		<g>
			<path fill="#F1C33E" d="M8.9,18.9c-0.2-0.5-0.7-0.7-1.2-0.4l-3.9,2.3c-0.5,0.3-0.7,0.9-0.4,1.4l0.9,1.6c0.3,0.5,0.9,0.6,1.4,0.3
				l3.9-2.2c0.5-0.3,0.6-0.9,0.3-1.3L8.9,18.9z"/>
		</g>
	</g>
</g>
</svg>
